<?xml version="1.0" encoding="UTF-8" standalone="no"?>
<svg
   version="1.1"
   x="0px"
   y="0px"
   viewBox="0 0 64 80"
   style="enable-background:new 0 0 64 64;"
   xml:space="preserve"
   id="svg20"
   sodipodi:docname="astronomy.svg"
   inkscape:version="1.1 (c68e22c387, 2021-05-23)"
   xmlns:inkscape="http://www.inkscape.org/namespaces/inkscape"
   xmlns:sodipodi="http://sodipodi.sourceforge.net/DTD/sodipodi-0.dtd"
   xmlns="http://www.w3.org/2000/svg"
   xmlns:svg="http://www.w3.org/2000/svg"><defs
     id="defs24" /><sodipodi:namedview
     id="namedview22"
     pagecolor="#ffffff"
     bordercolor="#666666"
     borderopacity="1.0"
     inkscape:pageshadow="2"
     inkscape:pageopacity="0.0"
     inkscape:pagecheckerboard="0"
     showgrid="false"
     inkscape:zoom="10.15"
     inkscape:cx="12.561576"
     inkscape:cy="39.950739"
     inkscape:window-width="2400"
     inkscape:window-height="1271"
     inkscape:window-x="2391"
     inkscape:window-y="-9"
     inkscape:window-maximized="1"
     inkscape:current-layer="g14" /><g
     id="g14"
     transform="translate(-68.866995,-5.320197)"><g
       id="g6"
       transform="translate(69.064039,9.7536946)"
       style="fill:#ffffff;fill-opacity:1"><path
         d="m 13.7,6.1 c 0.3,2.1 0,4.6 -0.7,7.2 -0.8,2.6 -2,4.9 -3.4,6.4 -0.6,0.7 -1.2,1.2 -1.9,1.5 l 20.5,6.2 c 0.2,0.1 0.5,0 0.6,-0.3 0.2,-0.3 0.3,-0.5 0.5,-0.8 l 7.8,2.4 c 0.2,0.1 0.5,0 0.6,-0.2 0.2,-0.2 0.3,-0.5 0.5,-0.8 l 9.6,2.9 c 0.2,0.1 0.5,0 0.6,-0.2 0.2,-0.3 0.4,-0.5 0.6,-0.8 l 8.8,2.7 c 1,-1.1 1.8,-2.7 2.4,-4.7 0.6,-2 0.8,-3.8 0.6,-5.2 L 52,19.7 c 0,-0.3 0,-0.7 0,-1 0,-0.2 -0.2,-0.4 -0.4,-0.5 L 42,15.3 c 0,-0.3 0,-0.6 0,-0.9 0,-0.2 -0.2,-0.4 -0.4,-0.5 l -7.8,-2.4 c 0,-0.3 0,-0.7 0.1,-1 0,-0.3 -0.1,-0.5 -0.4,-0.6 L 13,3.8 c 0.3,0.6 0.6,1.4 0.7,2.3 z"
         id="path2"
         style="fill:#ffffff;fill-opacity:1" /><path
         d="M 12.4,6.3 C 12.2,4.6 11.5,3.4 10.5,3.1 9.4,2.7 8.2,3.4 7,4.6 5.8,6 4.6,8.2 3.8,10.7 c -0.8,2.5 -1,5 -0.7,6.8 0.2,1.7 0.9,2.9 1.9,3.2 1,0.3 2.3,-0.3 3.4,-1.6 1.2,-1.4 2.4,-3.5 3.2,-6.1 0.8,-2.5 1,-4.9 0.8,-6.7 z m -1.9,6.5 C 10,14.6 9.1,16.1 8.2,17.1 7.4,18 6.5,18.5 5.8,18.2 5.1,18 4.6,17.1 4.4,15.9 4.2,14.6 4.4,12.9 4.9,11 5.4,9.2 6.3,7.6 7.2,6.7 8,5.8 8.9,5.4 9.6,5.6 c 0.7,0.2 1.2,1.1 1.4,2.3 0.2,1.3 0.1,3 -0.5,4.9 z"
         id="path4"
         style="fill:#ffffff;fill-opacity:1" /></g><g
       id="g12"
       transform="translate(69.064039,9.7536946)"
       style="fill:#ffffff;fill-opacity:1"><polygon
         points="34,40.2 34,61 30,61 30,40.2 18.2,61 13.7,61 27.8,36.1 36.2,36.1 50.3,61 45.8,61 "
         id="polygon8"
         style="fill:#ffffff;fill-opacity:1" /><path
         d="m 36,30.6 h -8 c -0.7,0 -1.2,0.5 -1.2,1.2 V 34 c 0,0.7 0.5,1.2 1.2,1.2 h 8 c 0.7,0 1.2,-0.5 1.2,-1.2 v -2.2 c 0,-0.7 -0.5,-1.2 -1.2,-1.2 z"
         id="path10"
         style="fill:#ffffff;fill-opacity:1" /></g></g></svg>
