<?xml version="1.0" encoding="UTF-8" standalone="no"?>
<svg
   xml:space="preserve"
   version="1.1"
   style="shape-rendering:geometricPrecision;text-rendering:geometricPrecision;image-rendering:optimizeQuality;"
   viewBox="0 0 251 291.25"
   x="0px"
   y="0px"
   fill-rule="evenodd"
   clip-rule="evenodd"
   id="svg416"
   sodipodi:docname="dive.svg"
   inkscape:version="1.1 (c68e22c387, 2021-05-23)"
   xmlns:inkscape="http://www.inkscape.org/namespaces/inkscape"
   xmlns:sodipodi="http://sodipodi.sourceforge.net/DTD/sodipodi-0.dtd"
   xmlns="http://www.w3.org/2000/svg"
   xmlns:svg="http://www.w3.org/2000/svg"><sodipodi:namedview
     id="namedview418"
     pagecolor="#ffffff"
     bordercolor="#666666"
     borderopacity="1.0"
     inkscape:pageshadow="2"
     inkscape:pageopacity="0.0"
     inkscape:pagecheckerboard="0"
     showgrid="false"
     inkscape:zoom="2.7879828"
     inkscape:cx="54.699046"
     inkscape:cy="145.44566"
     inkscape:window-width="2400"
     inkscape:window-height="1271"
     inkscape:window-x="2391"
     inkscape:window-y="-9"
     inkscape:window-maximized="1"
     inkscape:current-layer="svg416" /><defs
     id="defs402"><style
       type="text/css"
       id="style400">
   
    .fil0 {fill:black}
   
  </style></defs><g
     id="g410"
     transform="translate(-266.50092,13.271244)"
     style="fill-opacity:1;fill:#ffffff"><path
       class="fil0"
       d="m 204,24 c 7,7 18,15 17,25 v 0 c 2,0 3,0 4,-1 1,0 2,-1 3,-3 0,-1 0,-2 1,-3 -1,0 -1,-1 -1,-1 -2,-2 -2,-6 0,-8 2,-2 6,-2 8,0 2,2 2,6 0,8 -1,1 -2,2 -3,2 -1,2 -1,3 -2,4 -1,2 -2,4 -4,5 -2,1 -4,1 -6,1 v 0 l -4,28 28,13 c 11,6 5,22 -7,17 L 206,96 c -6,-3 -10,-6 -10,-11 l 2,-19 -37,38 c 0,0 -1,1 -2,1 0,1 0,1 0,2 l -18,32 c -1,1 -1,2 -2,2 0,1 0,1 -1,1 l -28,29 17,40 c 10,23 -23,31 -22,8 1,-16 4,-21 -10,-46 -1,-1 -1,-2 -1,-3 -2,-3 -1,-7 2,-10 l 29,-30 17,-31 v 0 l -37,1 c -2,0 -4,-1 -6,-2 v 0 L 58,75 25,102 C 5,117 -12,88 11,83 26,80 32,82 53,61 c 1,-1 1,-1 2,-2 3,-2 7,-2 10,-1 l 42,23 h 28 c 0,-1 1,-2 1,-2 l 55,-55 c 1,-1 3,-2 5,-3 1,-8 1,-14 -1,-16 -2,-1 -6,0 -12,5 l -3,-3 c 8,-6 14,-8 18,-5 3,3 3,10 2,20 2,0 3,1 4,2 z"
       id="path404"
       style="fill-opacity:1;fill:#ffffff" /><path
       class="fil0"
       d="m 185,23 v 0 0 L 165,43 143,65 126,49 148,27 169,7 v 0 0 c 9,-9 25,7 16,16 z"
       id="path406"
       style="fill-opacity:1;fill:#ffffff" /><circle
       class="fil0"
       transform="matrix(1.07044,1.07044,-1.07044,1.07044,224.583,16.0932)"
       r="11"
       id="circle408"
       cx="0"
       cy="0"
       style="fill-opacity:1;fill:#ffffff" /></g></svg>
