<?xml version="1.0" encoding="UTF-8" standalone="no"?>
<svg
   version="1.1"
   viewBox="0 0 100 125"
   x="0px"
   y="0px"
   id="svg4672"
   sodipodi:docname="Hiker.svg"
   inkscape:version="1.1 (c68e22c387, 2021-05-23)"
   xmlns:inkscape="http://www.inkscape.org/namespaces/inkscape"
   xmlns:sodipodi="http://sodipodi.sourceforge.net/DTD/sodipodi-0.dtd"
   xmlns="http://www.w3.org/2000/svg"
   xmlns:svg="http://www.w3.org/2000/svg">
  <defs
     id="defs4676" />
  <sodipodi:namedview
     id="namedview4674"
     pagecolor="#ffffff"
     bordercolor="#666666"
     borderopacity="1.0"
     inkscape:pageshadow="2"
     inkscape:pageopacity="0.0"
     inkscape:pagecheckerboard="0"
     showgrid="false"
     inkscape:zoom="6.496"
     inkscape:cx="19.627463"
     inkscape:cy="62.42303"
     inkscape:window-width="2400"
     inkscape:window-height="1271"
     inkscape:window-x="2391"
     inkscape:window-y="-9"
     inkscape:window-maximized="1"
     inkscape:current-layer="svg4672" />
  <g
     transform="translate(0,-952.36216)"
     id="g4666"
     style="fill:#ffffff;fill-opacity:1">
    <path
       style="fill:#ffffff;fill-opacity:1"
       d="m 59.822634,957.36216 c -5.044347,-10e-6 -9.133283,4.08941 -9.133283,9.13377 0,5.04436 4.088936,9.13378 9.133283,9.13378 5.044372,-2e-5 9.133769,-4.08942 9.133769,-9.13378 0,-5.04436 -4.089397,-9.13376 -9.133769,-9.13377 z M 36.97915,974.7356 c -2.336608,0.005 -4.194079,0.97113 -5.325416,3.42553 l -8.230612,19.12154 c -1.096705,2.54675 0.642913,5.44353 3.290431,6.26823 l 5.050457,1.5724 c 2.647714,0.8247 5.442903,-0.6444 6.267705,-3.2914 l 6.268192,-20.11349 c 0.824803,-2.64695 -0.642742,-5.44351 -3.290431,-6.26819 -1.055425,-0.32917 -2.060036,-0.55955 -3.000198,-0.65924 -0.352655,-0.0371 -0.696365,-0.056 -1.030128,-0.0554 z m 17.310908,2.51903 c -3.087451,0.0853 -6.284422,1.88331 -7.258238,5.02086 l -5.984143,19.28381 -0.702671,2.266 c -0.305118,0.9853 -0.169741,2.5216 0.781419,4.3564 l 5.280054,10.184 1.494624,2.8823 12.073821,23.2888 c 1.275391,2.5501 4.390436,3.5631 6.921689,2.2508 2.531203,-1.3123 3.499301,-4.4423 2.15049,-6.9542 l -16.209656,-31.265 2.419267,-7.0673 1.770999,-5.17314 c 2.893344,6.68124 11.660111,9.63964 17.353385,11.56544 l -3.090409,37.6969 c -0.07024,0.8588 0.568981,1.612 1.427779,1.6823 0.858774,0.07 1.611915,-0.569 1.682207,-1.4278 l 3.092339,-37.7237 c 0.986062,-0.3582 1.807392,-1.1436 2.170068,-2.2164 0.56116,-1.6603 -0.16671,-3.4405 -1.638775,-4.2642 l 0.499788,-6.09399 c 0.07051,-0.85896 -0.457164,-1.67893 -1.515618,-1.68269 -1.058431,-0.004 -1.520727,0.76287 -1.594367,1.42731 l -0.429155,5.23517 c -5.095771,-1.82286 -8.60475,-3.48767 -10.26892,-5.4624 -0.99987,-1.18637 -1.92896,-2.79486 -2.542398,-5.19365 -0.665081,-2.51336 -0.811188,-5.1624 -1.315132,-8.11796 -0.503918,-2.95555 -3.480971,-4.58298 -6.568447,-4.49766 z m -15.670715,32.12807 -5.676727,18.4638 -11.16113,10.6603 c -2.089487,1.9394 -2.187983,5.2135 -0.219575,7.275 1.969092,2.0615 5.244297,2.1129 7.277326,0.1145 l 12.144943,-11.6002 c 0.644893,-0.616 1.117284,-1.3899 1.370489,-2.245 l 2.912848,-9.8441 z"
       fill="#000000"
       fill-opacity="1"
       stroke-width="0.138839"
       id="path4664" />
  </g>
</svg>
