<?xml version="1.0" encoding="UTF-8" standalone="no"?>
<svg
   version="1.1"
   x="0px"
   y="0px"
   viewBox="0 0 512 640"
   style="enable-background:new 0 0 512 512;"
   xml:space="preserve"
   id="svg4644"
   sodipodi:docname="Moto.svg"
   inkscape:version="1.1 (c68e22c387, 2021-05-23)"
   xmlns:inkscape="http://www.inkscape.org/namespaces/inkscape"
   xmlns:sodipodi="http://sodipodi.sourceforge.net/DTD/sodipodi-0.dtd"
   xmlns="http://www.w3.org/2000/svg"
   xmlns:svg="http://www.w3.org/2000/svg"><defs
     id="defs4648" /><sodipodi:namedview
     id="namedview4646"
     pagecolor="#ffffff"
     bordercolor="#666666"
     borderopacity="1.0"
     inkscape:pageshadow="2"
     inkscape:pageopacity="0.0"
     inkscape:pagecheckerboard="0"
     showgrid="false"
     inkscape:zoom="1.26875"
     inkscape:cx="100.49261"
     inkscape:cy="319.60591"
     inkscape:window-width="2400"
     inkscape:window-height="1271"
     inkscape:window-x="2391"
     inkscape:window-y="-9"
     inkscape:window-maximized="1"
     inkscape:current-layer="svg4644" /><g
     id="g4638"
     style="fill:#ffffff;fill-opacity:1"
     transform="matrix(1.4216493,0,0,1.3101032,-60.241637,-42.277567)"><circle
       transform="matrix(0.297,-0.9549,0.9549,0.297,40.6862,358.2423)"
       cx="263.60001"
       cy="151.5"
       id="ellipse4630"
       style="fill:#ffffff;fill-opacity:1"
       r="27.9" /><path
       d="m 115.6,277.5 c -31.2,0 -56.5,25.4 -56.5,56.5 0,31.2 25.4,56.5 56.5,56.5 31.2,0 56.5,-25.4 56.5,-56.5 0,-31.2 -25.3,-56.5 -56.5,-56.5 z m 0,88.2 c -17.5,0 -31.7,-14.2 -31.7,-31.7 0,-17.5 14.2,-31.7 31.7,-31.7 17.5,0 31.7,14.2 31.7,31.7 0,17.5 -14.2,31.7 -31.7,31.7 z"
       id="path4632"
       style="fill:#ffffff;fill-opacity:1" /><path
       d="m 280.9,330.5 c 1.8,-33.2 28.7,-60.1 62,-61.8 10.6,-0.5 20.7,1.5 29.7,5.5 10.7,4.7 22.6,-3.5 22.3,-15.2 -1.1,-38 -51.7,-77.4 -86.7,-54.5 0.2,0.1 0.3,0.3 0.4,0.4 7,9.3 6.5,18.2 2,23.8 L 256.8,208 243.3,178.1 c -1.9,-4.2 -5.7,-7.2 -10.2,-8 -4.5,-0.8 -9.2,0.6 -12.4,3.9 l -62.6,62.6 c -2.8,2.8 -4.2,6.5 -4.1,10.4 -11.6,-1.7 -24.2,-4.1 -38.4,-8 -50.3,-14 -71.8,15.5 -71.8,15.5 l 4.4,16.7 c 0,0 10.3,5.3 23.7,14.3 12.9,-11.6 30.4,-18.2 49.4,-16.6 32.5,2.8 58.3,29.6 59.7,62.2 0.7,16.6 -5.8,29.5 -15.4,41.4 h 128.8 c -9.8,-12.1 -14.4,-25.2 -13.5,-42 z m -39.5,-98.4 0.6,0.2 c -10.9,3.5 -22.3,10 -34.2,21.2 -2.9,-0.5 -5.9,-0.9 -8.9,-1.3 7.3,-8.1 21.2,-24.9 30.7,-36.4 l 4.1,9 c 1.5,3.4 4.2,6 7.7,7.3 z"
       id="path4634"
       style="fill:#ffffff;fill-opacity:1" /><path
       d="m 346.2,277.5 c -31.2,0 -56.5,25.4 -56.5,56.5 0,31.2 25.4,56.5 56.5,56.5 31.2,0 56.5,-25.4 56.5,-56.5 0.1,-31.2 -25.3,-56.5 -56.5,-56.5 z m 0,88.2 c -17.5,0 -31.7,-14.2 -31.7,-31.7 0,-17.5 14.2,-31.7 31.7,-31.7 17.5,0 31.7,14.2 31.7,31.7 0,17.5 -14.2,31.7 -31.7,31.7 z"
       id="path4636"
       style="fill:#ffffff;fill-opacity:1" /></g></svg>
