<?xml version="1.0" encoding="UTF-8" standalone="no"?>
<svg
   height="100px"
   width="100px"
   fill="#000000"
   version="1.1"
   x="0px"
   y="0px"
   viewBox="0 0 100 100"
   enable-background="new 0 0 100 100"
   xml:space="preserve"
   id="svg4552"
   sodipodi:docname="Video Game.svg"
   inkscape:version="1.1 (c68e22c387, 2021-05-23)"
   xmlns:inkscape="http://www.inkscape.org/namespaces/inkscape"
   xmlns:sodipodi="http://sodipodi.sourceforge.net/DTD/sodipodi-0.dtd"
   xmlns="http://www.w3.org/2000/svg"
   xmlns:svg="http://www.w3.org/2000/svg"><defs
     id="defs4556" /><sodipodi:namedview
     id="namedview4554"
     pagecolor="#ffffff"
     bordercolor="#666666"
     borderopacity="1.0"
     inkscape:pageshadow="2"
     inkscape:pageopacity="0.0"
     inkscape:pagecheckerboard="0"
     showgrid="false"
     inkscape:zoom="8.12"
     inkscape:cx="25.800493"
     inkscape:cy="40.086207"
     inkscape:window-width="2400"
     inkscape:window-height="1271"
     inkscape:window-x="2391"
     inkscape:window-y="-9"
     inkscape:window-maximized="1"
     inkscape:current-layer="svg4552" /><g
     id="g4550"
     style="fill:#ffffff;fill-opacity:1"
     transform="matrix(0.7591842,0,0,0.76391329,11.699507,10.468216)"><path
       d="m 10.264,78.058 c 0.875,-8.288 3.61,-17.697 7.315,-25.168 3.003,-6.058 7.813,-13.275 13.694,-13.32 0.221,-0.02 0.442,-0.03 0.661,-0.03 2.152,0 5.18,0.976 7.756,5.44 1.243,0.281 2.776,0.439 4.582,0.475 V 2.743 c 0,-1.515 -1.19,-2.742 -2.66,-2.742 H 2.66 C 1.191,0 0,1.228 0,2.743 v 85.181 c 0,1.514 1.191,2.742 2.66,2.742 h 7.961 C 9.888,87.122 9.754,82.889 10.264,78.058 Z M 8.388,57.972 c -1.056,0 -1.911,-1.219 -1.911,-2.723 V 9.089 c 0,-1.504 0.855,-2.723 1.911,-2.723 h 1.279 c 1.055,0 1.911,1.219 1.911,2.723 v 46.16 c 0,1.504 -0.856,2.723 -1.911,2.723 H 8.388 Z"
       id="path4544"
       style="fill:#ffffff;fill-opacity:1" /><g
       id="g4548"
       style="fill:#ffffff;fill-opacity:1"><path
         d="m 38.365,47.297 c -0.748,-0.209 -1.53,-2.164 -2.095,-2.838 -0.742,-0.881 -1.651,-1.655 -2.729,-2.05 -2.841,-1.041 -5.674,0.624 -7.666,2.611 -4.907,4.901 -7.825,12.13 -9.95,18.697 -2.587,8.002 -4.504,17.132 -3.032,25.565 0.078,0.466 0.172,0.925 0.277,1.384 1.232,5.404 6.798,12.676 12.49,7.981 4.835,-3.906 7.592,-10.887 10.066,-16.474 0.525,-1.16 1.032,-2.329 1.553,-3.493 0.262,-0.575 0.523,-1.157 0.829,-1.711 0.473,-0.873 0.772,-0.755 1.787,-0.755 5.66,0 11.319,0 16.979,0 2.8,0 5.601,0 8.402,0 1.4,0 2.799,0 4.199,0 0.701,0 1.401,0 2.102,0 0.904,0 2.099,-0.464 2.099,0.644 0.21,2.835 1.264,5.648 2.436,8.194 2.303,4.998 5.665,10.4 10.377,13.304 5.321,3.31 9.705,-0.195 11.616,-5.575 2.398,-6.745 1.731,-14.619 0.551,-21.547 -1.247,-7.321 -3.385,-14.81 -7.055,-21.254 -1.897,-3.334 -4.485,-6.574 -8.122,-7.924 -3.101,-1.168 -6.519,-0.504 -8.707,2.136 -0.58,0.693 -1.054,1.486 -1.43,2.313 -0.543,1.19 -2.143,1.094 -3.356,1.231 -3.531,0.4 -26.382,1.031 -31.621,-0.439 z m 2.566,17.091 h -6.056 v 6.242 h -6.682 v -6.242 h -6.056 v -6.889 h 6.056 v -6.244 h 6.682 v 6.244 h 6.056 z M 81.007,52.953 c 1.73,0 3.134,1.446 3.134,3.231 0,1.784 -1.403,3.23 -3.134,3.23 -1.731,0 -3.134,-1.446 -3.134,-3.23 0,-1.785 1.402,-3.231 3.134,-3.231 z m -5.936,12.581 c -1.73,0 -3.134,-1.446 -3.134,-3.23 0,-1.785 1.403,-3.231 3.134,-3.231 1.731,0 3.134,1.446 3.134,3.231 0,1.784 -1.402,3.23 -3.134,3.23 z m 5.936,6.118 c -1.731,0 -3.134,-1.447 -3.134,-3.23 0,-1.784 1.402,-3.231 3.134,-3.231 1.73,0 3.134,1.447 3.134,3.231 0,1.783 -1.404,3.23 -3.134,3.23 z m 5.935,-6.118 c -1.731,0 -3.135,-1.446 -3.135,-3.23 0,-1.785 1.403,-3.231 3.135,-3.231 1.73,0 3.134,1.446 3.134,3.231 0,1.784 -1.403,3.23 -3.134,3.23 z"
         id="path4546"
         style="fill:#ffffff;fill-opacity:1" /></g></g></svg>
